{"title":"The Frankenstein Chronicles S01 720p BluRay HEVC 2CH x265","uid":15962346,"size":2286575643,"categoryP":"video","categoryS":"hd___tv_shows","magnet":"?xt=urn:btih:8ea270caf9b72afafdb585c126e8ae5ecc6ecdd2&amp;dn=The+Frankenstein+Chronicles+S01+720p+BluRay+HEVC+2CH+x265&amp;tr=udp%3A%2F%2Ftracker.leechers-paradise.org%3A6969&amp;tr=udp%3A%2F%2Fzer0day.ch%3A1337&amp;tr=udp%3A%2F%2Fopen.demonii.com%3A1337&amp;tr=udp%3A%2F%2Ftracker.coppersurfer.tk%3A6969&amp;tr=udp%3A%2F%2Fexodus.desync.com%3A6969","seeders":9,"leechers":5,"uploader":"nayhtut","files":12,"time":1475682388,"description":"[Screenshots Gallery Link]\r\n\r\n\r\n[https://postimg.org/gallery/1ghhobtne]\r\n\r\n\r\nSource:The Frankenstein Chronicles S01 1080p BluRay x264-SHORTBREHD (19.68 GB)\r\n\r\n\r\nContains:  The Frankenstein Chronicles Season One Episode 01 to 06\r\n\r\nFormat                                   : Matroska\r\nFormat version                           : Version 4 / Version 2\r\nFile size                                : 2.12 GiB\r\nDuration                                 : Various\r\nOverall bit rate                         : 1 072 Kbps\r\nWriting application                      : Lavf57.25.100\r\nWriting library                          : Lavf57.25.100\r\n\r\nVideo\r\n\r\nID                                       : 1\r\nFormat                                   : V_MPEGH/ISO/HEVC\r\nCodec ID                                 : V_MPEGH/ISO/HEVC\r\nDuration                                 : 47mn 10s\r\nBit rate                                 : 858 Kbps\r\nWidth                                    : 1 274 pixels\r\nHeight                                   : 720 pixels\r\nDisplay aspect ratio                     : 16:9\r\nFrame rate                               : 25.000 fps\r\nBits/(Pixel*Frame)                       : 0.037\r\nStream size                              : 290 MiB (80%)\r\nWriting library                          : Lavc57.48.101 libx265\r\nDefault                                  : Yes\r\nForced                                   : No\r\nDURATION                                 : 00:47:09.971000000\r\n\r\nAudio\r\n\r\nID                                       : 2\r\nFormat                                   : AC-3\r\nFormat/Info                              : Audio Coding 3\r\nMode extension                           : CM (complete main)\r\nFormat settings, Endianness              : Big\r\nCodec ID                                 : A_AC3\r\nDuration                                 : 47mn 9s\r\nBit rate mode                            : Constant\r\nBit rate                                 : 192 Kbps\r\nChannel(s)                               : 2 channels\r\nChannel positions                        : Front: L R\r\nSampling rate                            : 48.0 KHz\r\nBit depth                                : 16 bits\r\nCompression mode                         : Lossy\r\nStream size                              : 64.8 MiB (18%)\r\nWriting library                          : Lavc57.24.102 ac3\r\nLanguage                                 : English\r\nDefault                                  : Yes\r\nForced                                   : No\r\nDURATION                                 : 00:47:09.983000000","torrent":{"xt":"urn:btih:8ea270caf9b72afafdb585c126e8ae5ecc6ecdd2","amp;dn":"The+Frankenstein+Chronicles+S01+720p+BluRay+HEVC+2CH+x265","amp;tr":["udp%3A%2F%2Ftracker.leechers-paradise.org%3A6969","udp%3A%2F%2Fzer0day.ch%3A1337","udp%3A%2F%2Fopen.demonii.com%3A1337","udp%3A%2F%2Ftracker.coppersurfer.tk%3A6969","udp%3A%2F%2Fexodus.desync.com%3A6969"],"infoHash":"8ea270caf9b72afafdb585c126e8ae5ecc6ecdd2","infoHashBuffer":{"type":"Buffer","data":[142,162,112,202,249,183,42,250,253,181,133,193,38,232,174,94,204,110,205,210]},"announce":[],"urlList":[]}}